# xmcd
#
# Track frame offsets: 
#        150
#        20644
#        36077
#        55205
#        70909
#        92822
#        115840
#        134349
#        156028
#        176212
#        195990
#        214691
#
# Disc length: 3091 seconds
#
# Revision: 0
# Processed by: cddbd v1.5.2PL0 Copyright (c) Steve Scherf et al.
# Submitted via: ExactAudioCopyFreeDBPlugin 1.0
#
DISCID=a60c110c
DTITLE=Laszlo - Herzschlag
DYEAR=2016
DGENRE=
TTITLE0=Du reisst alle meine Mauern ein
TTITLE1=Zerbrochenes Glas
TTITLE2=Vienna
TTITLE3=Für mich bist du wunderschön
TTITLE4=Niemand liebt mich so wie du
TTITLE5=Mein Engel lacht
TTITLE6=Jetzt und hier
TTITLE7=Wand aus Eis
TTITLE8=Durch den Monsun
TTITLE9=Im Herzen der Nacht
TTITLE10=Du bist mein Daheim
TTITLE11=Wie mei Herzschlag
EXTD=
EXTT0=
EXTT1=
EXTT2=
EXTT3=
EXTT4=
EXTT5=
EXTT6=
EXTT7=
EXTT8=
EXTT9=
EXTT10=
EXTT11=
PLAYORDER=
